<svg width="70" height="70" viewBox="0 0 70 70" fill="none" xmlns="http://www.w3.org/2000/svg">
<path d="M35.0001 25.8878C29.9825 25.8878 25.8878 29.9825 25.8878 35.0001C25.8878 40.0177 29.9825 44.1124 35.0001 44.1124C40.0177 44.1124 44.1124 40.0177 44.1124 35.0001C44.1124 29.9825 40.0177 25.8878 35.0001 25.8878ZM62.3302 35.0001C62.3302 31.2266 62.3643 27.4874 62.1524 23.7208C61.9405 19.3458 60.9425 15.463 57.7432 12.2638C54.5372 9.0577 50.6612 8.06649 46.2862 7.85457C42.5128 7.64266 38.7735 7.67684 35.0069 7.67684C31.2335 7.67684 27.4942 7.64266 23.7276 7.85457C19.3526 8.06649 15.4698 9.06453 12.2706 12.2638C9.06453 15.4698 8.07332 19.3458 7.86141 23.7208C7.64949 27.4942 7.68367 31.2335 7.68367 35.0001C7.68367 38.7667 7.64949 42.5128 7.86141 46.2794C8.07332 50.6544 9.07137 54.5372 12.2706 57.7364C15.4766 60.9425 19.3526 61.9337 23.7276 62.1456C27.5011 62.3575 31.2403 62.3233 35.0069 62.3233C38.7804 62.3233 42.5196 62.3575 46.2862 62.1456C50.6612 61.9337 54.544 60.9356 57.7432 57.7364C60.9493 54.5303 61.9405 50.6544 62.1524 46.2794C62.3712 42.5128 62.3302 38.7735 62.3302 35.0001ZM35.0001 49.0206C27.2413 49.0206 20.9796 42.7589 20.9796 35.0001C20.9796 27.2413 27.2413 20.9796 35.0001 20.9796C42.7589 20.9796 49.0206 27.2413 49.0206 35.0001C49.0206 42.7589 42.7589 49.0206 35.0001 49.0206ZM49.5948 23.6798C47.7833 23.6798 46.3204 22.2169 46.3204 20.4054C46.3204 18.5938 47.7833 17.1309 49.5948 17.1309C51.4063 17.1309 52.8692 18.5938 52.8692 20.4054C52.8698 20.8355 52.7854 21.2615 52.6211 21.6591C52.4567 22.0566 52.2155 22.4178 51.9114 22.7219C51.6072 23.0261 51.246 23.2673 50.8485 23.4316C50.451 23.596 50.025 23.6803 49.5948 23.6798Z" fill="#414141"/>
</svg>
