<svg width="70" height="70" viewBox="0 0 70 70" fill="none" xmlns="http://www.w3.org/2000/svg">
<path d="M58.8004 19.9501C50.4004 7.00006 33.2504 3.15006 19.9504 11.2001C7.00045 19.2501 2.80045 36.7501 11.2004 49.7001L11.9004 50.7501L9.10045 61.2501L19.6004 58.4501L20.6504 59.1501C25.2004 61.6001 30.1005 63.0001 35.0005 63.0001C40.2505 63.0001 45.5005 61.6001 50.0504 58.8001C63.0005 50.4001 66.8504 33.2501 58.8004 19.9501ZM51.4504 46.9001C50.0504 49.0001 48.3004 50.4001 45.8505 50.7501C44.4505 50.7501 42.7004 51.4501 35.7004 48.6501C29.7504 45.8501 24.8504 41.3001 21.3504 36.0501C19.2504 33.6001 18.2004 30.4501 17.8504 27.3001C17.8504 24.5001 18.9004 22.0501 20.6504 20.3001C21.3504 19.6001 22.0504 19.2501 22.7505 19.2501H24.5005C25.2004 19.2501 25.9004 19.2501 26.2505 20.6501C26.9504 22.4001 28.7004 26.6001 28.7004 26.9501C29.0504 27.3001 29.0504 28.0001 28.7004 28.3501C29.0504 29.0501 28.7005 29.7501 28.3505 30.1001C28.0005 30.4501 27.6504 31.1501 27.3004 31.5001C26.6005 31.8501 26.2505 32.5501 26.6004 33.2501C28.0005 35.3501 29.7505 37.4501 31.5005 39.2001C33.6005 40.9501 35.7004 42.3501 38.1504 43.4001C38.8504 43.7501 39.5504 43.7501 39.9004 43.0501C40.2505 42.3501 42.0005 40.6001 42.7004 39.9001C43.4004 39.2001 43.7505 39.2001 44.4504 39.5501L50.0504 42.3501C50.7505 42.7001 51.4505 43.0501 51.8004 43.4001C52.1505 44.4501 52.1504 45.8501 51.4504 46.9001Z" fill="#414141"/>
</svg>
